HIERARCHY
ROOT Hips
{
  OFFSET -32.5998 29.0326 120.673
  CHANNELS 6 Xposition Yposition Zposition Zrotation Xrotation Yrotation
  JOINT LeftUpLeg
  {
    OFFSET 8.64259 1.95398 -2.38835
    CHANNELS 3 Zrotation Xrotation Yrotation
    JOINT LeftLeg
    {
      OFFSET 43.7702 0 0
      CHANNELS 3 Zrotation Xrotation Yrotation
      JOINT LeftFoot
      {
        OFFSET 40.6238 0 0
        CHANNELS 3 Zrotation Xrotation Yrotation
        JOINT LeftToeBase
        {
          OFFSET 12.7242 0 0
          CHANNELS 3 Zrotation Xrotation Yrotation
          End Site
          {
            OFFSET 0 0 0
          }
        }
      }
    }
  }
  JOINT RightUpLeg
  {
    OFFSET -8.2249 1.95398 -2.59336
    CHANNELS 3 Zrotation Xrotation Yrotation
    JOINT RightLeg
    {
      OFFSET 43.5653 0 0
      CHANNELS 3 Zrotation Xrotation Yrotation
      JOINT RightFoot
      {
        OFFSET 40.6238 0 0
        CHANNELS 3 Zrotation Xrotation Yrotation
        JOINT RightToeBase
        {
          OFFSET 12.7242 0 0
          CHANNELS 3 Zrotation Xrotation Yrotation
          End Site
          {
            OFFSET 0 0 0
          }
        }
      }
    }
  }
  JOINT Spine
  {
    OFFSET 0.165834 0.87714 6.61349
    CHANNELS 3 Zrotation Xrotation Yrotation
    JOINT Spine1
    {
      OFFSET 7.38963 1.71661e-005 0
      CHANNELS 3 Zrotation Xrotation Yrotation
      JOINT Spine2
      {
        OFFSET 11.9445 1.14441e-005 0
        CHANNELS 3 Zrotation Xrotation Yrotation
        JOINT Spine3
        {
          OFFSET 14.7254 4.19617e-005 0
          CHANNELS 3 Zrotation Xrotation Yrotation
          JOINT Spine4
          {
            OFFSET 10.9679 0 0
            CHANNELS 3 Zrotation Xrotation Yrotation
            JOINT RightShoulder
            {
              OFFSET 2.46616 -1.6653 3.69651
              CHANNELS 3 Zrotation Xrotation Yrotation
              JOINT RightArm
              {
                OFFSET 13.0012 0 0
                CHANNELS 3 Zrotation Xrotation Yrotation
                JOINT RightForeArm
                {
                  OFFSET 28.7848 1.62311e-005 0
                  CHANNELS 3 Zrotation Xrotation Yrotation
                  JOINT RightHand
                  {
                    OFFSET 26.5688 1.62095e-005 0
                    CHANNELS 3 Zrotation Xrotation Yrotation
                    End Site
                    {
                      OFFSET 0 0 0
                    }
                  }
                }
              }
            }
            JOINT LeftShoulder
            {
              OFFSET 2.38034 -1.29275 -3.7523
              CHANNELS 3 Zrotation Xrotation Yrotation
              JOINT LeftArm
              {
                OFFSET 16.3182 6.07031e-005 0
                CHANNELS 3 Zrotation Xrotation Yrotation
                JOINT LeftForeArm
                {
                  OFFSET 27.0901 0 0
                  CHANNELS 3 Zrotation Xrotation Yrotation
                  JOINT LeftHand
                  {
                    OFFSET 24.5451 1.51738e-005 0
                    CHANNELS 3 Zrotation Xrotation Yrotation
                    End Site
                    {
                      OFFSET 0 0 0
                    }
                  }
                }
              }
            }
            JOINT Neck
            {
              OFFSET 5.0226 -0.0266342 0
              CHANNELS 3 Zrotation Xrotation Yrotation
              JOINT Head
              {
                OFFSET 6.69364 2.86102e-005 0
                CHANNELS 3 Zrotation Xrotation Yrotation
                End Site
                {
                  OFFSET 0 0 0
                }
              }
            }
          }
        }
      }
    }
  }
}
MOTION
Frames:	6
Frame Time:	0.0416667
-328.813 82.2784 335.658 69.703 46.7036 96.8216 -165.093 53.0645 73.0881 -57.2531 10.5148 -6.35662 78.388 9.75029 0.505903 15.149 -5.09659 -1.32166 170.879 -9.66482 84.0772 -37.2422 -17.1233 -4.22384 58.6196 1.67897 -0.602087 78.6689 -17.6743 14.5224 2.28766 8.14248 -88.6382 10.539 5.18198 2.24327 -1.12312 5.27568 2.01254 -23.7034 4.26836 3.69837 -3.69077 4.26836 3.69837 93.7165 -14.9793 -104.688 25.2606 -6.20902 -31.9919 -11.6413 -0.74765 -31.3652 -16.0961 0.343268 -7.8179 -87.8843 -36.6721 79.1258 -30.4527 13.8296 15.0154 21.3518 10.6488 -31.2237 0.486243 -0.0704703 -3.56628 43.6845 -9.73027 -3.2655 -16.3841 -7.39895 -0.0233885 
-321.011 81.6755 327.73 72.5973 50.8563 94.3522 -167.647 44.0208 73.6805 -61.673 11.4678 -4.79381 86.7311 15.5383 0.733823 24.0838 -1.32093 -1.34586 172.029 -2.45971 88.2576 -60.4964 -19.5384 -4.46708 62.0316 -0.266189 -2.31536 83.3206 -20.701 8.66573 1.69124 8.44952 -88.5327 9.92489 4.03697 2.58419 -1.74201 4.14674 2.40387 -24.2888 3.07414 3.67786 -4.27616 3.07414 3.67785 91.8218 -19.9478 -107.06 31.6062 -10.3601 -20.9242 -15.9875 -6.29926 -36.831 -11.7884 0.141328 -6.83665 -88.3016 -42.024 79.6569 -24.8697 14.7935 -0.549604 24.3143 9.8256 -38.3731 1.65084 -0.0952031 -4.45054 43.964 -11.1451 -6.6579 -13.9095 -6.99503 0.616345 
-313.559 81.84 319.521 73.7005 53.5089 92.6242 -170.27 33.1728 74.9066 -60.2581 8.06805 -3.73619 96.7524 19.5454 -5.9176 27.1916 -0.351217 -0.698895 174.683 14.1907 82.8777 -83.4469 -10.0384 -4.70241 70.5505 -6.17835 -5.45638 75.0333 -19.1437 2.98648 1.25071 8.63575 -88.3497 9.549 3.23754 3.02425 -2.12107 3.36745 2.87885 -24.6452 2.17968 3.8567 -4.63256 2.17968 3.8567 91.4429 -23.9585 -106.151 40.4554 -15.5333 -6.71884 -16.0562 -7.66442 -35.7979 -11.8058 0.00111076 -5.46273 -89.6759 -46.5265 78.4644 -13.7368 21.7878 -24.3027 30.4398 9.49899 -44.2348 3.84938 0.254248 1.23825 42.2778 -11.7361 -9.15901 -11.6776 -6.3489 0.188571 
-305.845 82.023 311.601 76.4442 53.7559 93.1282 -171.644 20.4772 80.8095 -55.4964 8.11249 -2.47918 105.085 22.5125 -11.7582 29.9948 -0.593716 2.76429 179.208 32.2541 88.2098 -96.549 -0.945343 -4.93027 76.9654 -10.5373 -6.58484 58.4647 -12.7038 1.00832 0.820708 8.70398 -88.6226 9.42971 2.25599 2.55739 -2.24148 2.36634 2.45566 -24.7642 1.38353 3.11675 -4.75154 1.3835 3.11675 92.6066 -24.8883 -103.256 51.2351 -16.2444 10.571 -19.4302 -12.373 -38.246 -11.9426 -0.06952 -4.68088 -89.6569 -43.8897 77.8831 -1.26615 25.8953 -46.9742 37.8412 2.55773 -53.3831 -3.97726 -0.28767 8.77973 38.4297 -10.1061 -11.15 -9.29055 -4.21025 -0.328384 
-297.615 82.2088 303.94 74.727 57.5096 100.268 -172.326 9.91687 89.7015 -47.2079 11.7538 -0.121503 109.369 26.319 -12.229 29.3223 -1.78319 4.93471 177.631 49.4554 92.9605 -95.2714 1.92087 -3.76266 82.5005 -12.9382 -5.61797 34.5784 -3.42753 4.65651 -0.441678 8.42989 -89.4345 10.016 -0.622914 1.17383 -1.65531 -0.570657 1.2001 -24.1888 -0.946905 0.932378 -4.1761 -0.946887 0.932381 93.6746 -21.9753 -101.922 58.4583 -13.3646 28.592 -26.2277 -13.5523 -47.4925 -10.2138 -0.158591 -3.52811 -88.0808 -35.746 78.549 1.44 17.7652 -58.1726 41.6436 -4.43304 -67.6609 -2.23195 -0.0786123 5.31381 35.0366 -6.49195 -12.6855 -10.4316 -0.581134 1.8312 
-287.961 84.9613 293.335 75.8597 55.7948 103.503 -170.366 -3.43566 97.146 -31.4453 19.8901 0.958952 87.853 20.5511 1.13073 45.9646 5.37941 4.97758 178.442 56.0904 94.6468 -77.7306 -0.0920266 -2.45118 81.9189 -11.4757 -3.16622 17.5613 2.89671 6.31177 -1.44408 8.07824 -90.1339 10.7208 -2.93748 0.0024577 -0.946706 -2.93454 0.131852 -23.5075 -2.8023 -0.88121 -3.49484 -2.80231 -0.881215 93.7133 -18.4965 -103.162 58.9975 -11.4788 42.9721 -29.8882 -8.22394 -56.0628 -8.73112 -0.0747181 -4.41518 -85.8525 -28.0481 80.8169 -2.88524 10.5653 -57.0738 41.1896 -7.20974 -78.6854 4.76019 0.106583 -1.68514 32.0542 -0.121492 -11.776 -14.6083 4.58063 3.03253 
